<svg width="1132" height="1800" viewBox="0 0 1132 1800" fill="none" xmlns="http://www.w3.org/2000/svg">
<rect y="146" width="1132" height="1508" fill="#000176"/>
<mask id="path-2-outside-1_404_47" maskUnits="userSpaceOnUse" x="262" y="439" width="606" height="942" fill="black">
<rect fill="white" x="262" y="439" width="606" height="942"/>
<path d="M557 1360.5C493 1360.5 441 1352 401 1335C361 1318 331 1289.5 311 1249.5C292 1208.5 282.5 1151.5 282.5 1078.5V1015.5H456.5C413.5 999.5 379.5 980.5 354.5 958.5C330.5 935.5 313.5 906.5 303.5 871.5C293.5 835.5 288.5 789.5 288.5 733.5C288.5 664.5 297 610 314 570C331 530 359.5 501.5 399.5 484.5C439.5 467.5 494.5 459 564.5 459C747.5 459 839 538 839 696V828H725C756 844 780 862 797 882C815 902 828 927.5 836 958.5C844 988.5 848 1027.5 848 1075.5C848 1178.5 823 1252 773 1296C723 1339 651 1360.5 557 1360.5ZM557 1333.5C642 1333.5 707.5 1314 753.5 1275C799.5 1236 822.5 1169.5 822.5 1075.5C822.5 1021.5 818 980 809 951C800 922 783 899 758 882C733 864 696.5 846 648.5 828C632.5 822 620.5 817 612.5 813C604.5 809 597.5 805 591.5 801H813.5V696C813.5 556 730.5 486 564.5 486C501.5 486 452 494 416 510C380 526 354 552 338 588C323 624 315.5 672.5 315.5 733.5C315.5 797.5 324.5 849.5 342.5 889.5C360.5 929.5 395.5 961.5 447.5 985.5C470.5 996.5 489.5 1006 504.5 1014C520.5 1022 534 1030.5 545 1039.5H308V1078.5C308 1175.5 327.5 1242.5 366.5 1279.5C406.5 1315.5 470 1333.5 557 1333.5ZM557 1320C475 1320 415 1303 377 1269C340 1235 321.5 1171.5 321.5 1078.5V1053H537.5V1132.5C537.5 1158.5 539.5 1176 543.5 1185C548.5 1194 555.5 1198.5 564.5 1198.5C574.5 1198.5 581 1193 584 1182C588 1171 590 1151.5 590 1123.5C590 1093.5 585 1070.5 575 1054.5C566 1038.5 551.5 1025 531.5 1014C511.5 1002 485 988.5 452 973.5C403 950.5 370 920.5 353 883.5C336 845.5 327.5 795.5 327.5 733.5C327.5 675.5 334.5 629.5 348.5 595.5C363.5 561.5 388 537.5 422 523.5C457 508.5 504.5 501 564.5 501C721.5 501 800 566 800 696V787.5H594.5V765C594.5 746 594 730 593 717C593 703 592.5 691 591.5 681C590.5 662 582.5 652.5 567.5 652.5C560.5 652.5 554.5 656.5 549.5 664.5C544.5 672.5 542 690.5 542 718.5C542 747.5 546 769 554 783C563 797 575.5 807.5 591.5 814.5C607.5 821.5 626 829.5 647 838.5C688 854.5 720 871 743 888C767 905 784 928 794 957C804 985 809 1024.5 809 1075.5C809 1164.5 787 1227.5 743 1264.5C699 1301.5 637 1320 557 1320ZM581 793.5C573 786.5 566.5 777.5 561.5 766.5C556.5 755.5 554 739.5 554 718.5C554 697.5 555 683.5 557 676.5C560 669.5 563.5 666 567.5 666C573.5 666 577.5 674.5 579.5 691.5C580.5 699.5 581 710 581 723C581 735 581 749 581 765V793.5ZM564.5 1185C558.5 1185 554.5 1181 552.5 1173C551.5 1165 551 1150 551 1128V1042.5C560 1052.5 566.5 1064 570.5 1077C575.5 1090 578 1107 578 1128C578 1151 577 1166.5 575 1174.5C573 1181.5 569.5 1185 564.5 1185Z"/>
</mask>
<path d="M557 1360.5C493 1360.5 441 1352 401 1335C361 1318 331 1289.5 311 1249.5C292 1208.5 282.5 1151.5 282.5 1078.5V1015.5H456.5C413.5 999.5 379.5 980.5 354.5 958.5C330.5 935.5 313.5 906.5 303.5 871.5C293.5 835.5 288.5 789.5 288.5 733.5C288.5 664.5 297 610 314 570C331 530 359.5 501.5 399.5 484.5C439.5 467.5 494.5 459 564.5 459C747.5 459 839 538 839 696V828H725C756 844 780 862 797 882C815 902 828 927.5 836 958.5C844 988.5 848 1027.5 848 1075.5C848 1178.5 823 1252 773 1296C723 1339 651 1360.5 557 1360.5ZM557 1333.5C642 1333.5 707.5 1314 753.5 1275C799.5 1236 822.5 1169.5 822.5 1075.5C822.5 1021.5 818 980 809 951C800 922 783 899 758 882C733 864 696.5 846 648.5 828C632.5 822 620.5 817 612.5 813C604.5 809 597.5 805 591.5 801H813.5V696C813.5 556 730.5 486 564.5 486C501.5 486 452 494 416 510C380 526 354 552 338 588C323 624 315.5 672.5 315.5 733.5C315.5 797.5 324.5 849.5 342.5 889.5C360.5 929.5 395.5 961.5 447.5 985.5C470.5 996.5 489.5 1006 504.5 1014C520.5 1022 534 1030.5 545 1039.5H308V1078.5C308 1175.5 327.5 1242.5 366.5 1279.5C406.5 1315.5 470 1333.5 557 1333.5ZM557 1320C475 1320 415 1303 377 1269C340 1235 321.5 1171.5 321.5 1078.5V1053H537.5V1132.5C537.5 1158.5 539.5 1176 543.5 1185C548.5 1194 555.5 1198.5 564.5 1198.5C574.5 1198.5 581 1193 584 1182C588 1171 590 1151.5 590 1123.5C590 1093.5 585 1070.5 575 1054.5C566 1038.5 551.5 1025 531.5 1014C511.5 1002 485 988.5 452 973.5C403 950.5 370 920.5 353 883.5C336 845.5 327.5 795.5 327.5 733.5C327.5 675.5 334.5 629.5 348.5 595.5C363.5 561.5 388 537.5 422 523.5C457 508.5 504.5 501 564.5 501C721.5 501 800 566 800 696V787.5H594.5V765C594.5 746 594 730 593 717C593 703 592.5 691 591.5 681C590.5 662 582.5 652.5 567.5 652.5C560.5 652.5 554.5 656.5 549.5 664.5C544.5 672.5 542 690.5 542 718.5C542 747.5 546 769 554 783C563 797 575.5 807.5 591.5 814.5C607.5 821.5 626 829.5 647 838.5C688 854.5 720 871 743 888C767 905 784 928 794 957C804 985 809 1024.5 809 1075.5C809 1164.5 787 1227.5 743 1264.5C699 1301.5 637 1320 557 1320ZM581 793.5C573 786.5 566.5 777.5 561.5 766.5C556.5 755.5 554 739.5 554 718.5C554 697.5 555 683.5 557 676.5C560 669.5 563.5 666 567.5 666C573.5 666 577.5 674.5 579.5 691.5C580.5 699.5 581 710 581 723C581 735 581 749 581 765V793.5ZM564.5 1185C558.5 1185 554.5 1181 552.5 1173C551.5 1165 551 1150 551 1128V1042.5C560 1052.5 566.5 1064 570.5 1077C575.5 1090 578 1107 578 1128C578 1151 577 1166.5 575 1174.5C573 1181.5 569.5 1185 564.5 1185Z" fill="#75BCFE"/>
<path d="M401 1335L408.823 1316.59L408.823 1316.59L401 1335ZM311 1249.5L292.854 1257.91L292.979 1258.18L293.111 1258.44L311 1249.5ZM282.5 1015.5V995.5H262.5V1015.5H282.5ZM456.5 1015.5V1035.5L463.475 996.756L456.5 1015.5ZM354.5 958.5L340.662 972.94L340.969 973.234L341.287 973.514L354.5 958.5ZM303.5 871.5L284.23 876.853L284.249 876.924L284.27 876.994L303.5 871.5ZM314 570L295.593 562.177L295.593 562.177L314 570ZM399.5 484.5L407.323 502.907L407.323 502.907L399.5 484.5ZM839 828V848H859V828H839ZM725 828V808L715.827 845.772L725 828ZM797 882L781.761 894.953L781.945 895.169L782.134 895.379L797 882ZM836 958.5L816.634 963.498L816.655 963.575L816.675 963.653L836 958.5ZM773 1296L786.041 1311.16L786.127 1311.09L786.213 1311.01L773 1296ZM753.5 1275L766.434 1290.26L753.5 1275ZM809 951L789.899 956.928L789.899 956.928L809 951ZM758 882L746.314 898.231L746.532 898.388L746.754 898.539L758 882ZM648.5 828L655.522 809.273L655.522 809.273L648.5 828ZM591.5 801V781H525.445L580.406 817.641L591.5 801ZM813.5 801V821H833.5V801H813.5ZM416 510L424.123 528.276L424.123 528.276L416 510ZM338 588L319.724 579.877L319.629 580.091L319.538 580.308L338 588ZM342.5 889.5L360.738 881.293L360.738 881.293L342.5 889.5ZM447.5 985.5L456.129 967.457L456.006 967.398L455.881 967.341L447.5 985.5ZM504.5 1014L495.088 1031.65L495.32 1031.77L495.556 1031.89L504.5 1014ZM545 1039.5V1059.5H601.028L557.665 1024.02L545 1039.5ZM308 1039.5V1019.5H288V1039.5H308ZM366.5 1279.5L352.735 1294.01L352.925 1294.19L353.121 1294.37L366.5 1279.5ZM377 1269L363.467 1283.73L363.565 1283.82L363.664 1283.9L377 1269ZM321.5 1053V1033H301.5V1053H321.5ZM537.5 1053H557.5V1033H537.5V1053ZM543.5 1185L525.224 1193.12L525.585 1193.94L526.017 1194.71L543.5 1185ZM584 1182L565.204 1175.17L564.922 1175.94L564.705 1176.74L584 1182ZM575 1054.5L557.568 1064.31L557.795 1064.71L558.04 1065.1L575 1054.5ZM531.5 1014L521.21 1031.15L521.532 1031.34L521.862 1031.52L531.5 1014ZM452 973.5L443.502 991.605L443.613 991.657L443.724 991.707L452 973.5ZM353 883.5L334.744 891.667L334.785 891.759L334.826 891.85L353 883.5ZM348.5 595.5L330.202 587.427L330.101 587.655L330.006 587.885L348.5 595.5ZM422 523.5L429.615 541.994L429.747 541.939L429.878 541.883L422 523.5ZM800 787.5V807.5H820V787.5H800ZM594.5 787.5H574.5V807.5H594.5V787.5ZM593 717H573V717.768L573.059 718.534L593 717ZM591.5 681L571.528 682.051L571.552 682.521L571.599 682.99L591.5 681ZM549.5 664.5L566.46 675.1L566.46 675.1L549.5 664.5ZM554 783L536.635 792.923L536.894 793.376L537.176 793.815L554 783ZM647 838.5L639.122 856.883L639.423 857.012L639.729 857.132L647 838.5ZM743 888L731.112 904.083L731.275 904.204L731.44 904.32L743 888ZM794 957L775.093 963.52L775.128 963.623L775.165 963.727L794 957ZM743 1264.5L730.128 1249.19L730.128 1249.19L743 1264.5ZM581 793.5L567.83 808.552L601 837.575V793.5H581ZM561.5 766.5L579.707 758.224L579.707 758.224L561.5 766.5ZM557 676.5L538.617 668.622L538.118 669.787L537.77 671.006L557 676.5ZM579.5 691.5L559.637 693.837L559.645 693.909L559.654 693.981L579.5 691.5ZM552.5 1173L532.654 1175.48L532.804 1176.68L533.097 1177.85L552.5 1173ZM551 1042.5L565.866 1029.12L531 990.381V1042.5H551ZM570.5 1077L551.384 1082.88L551.586 1083.54L551.833 1084.18L570.5 1077ZM575 1174.5L594.23 1179.99L594.322 1179.67L594.403 1179.35L575 1174.5ZM557 1340.5C494.529 1340.5 445.468 1332.17 408.823 1316.59L393.177 1353.41C436.532 1371.83 491.471 1380.5 557 1380.5V1340.5ZM408.823 1316.59C373.332 1301.51 346.831 1276.44 328.889 1240.56L293.111 1258.44C315.169 1302.56 348.668 1334.49 393.177 1353.41L408.823 1316.59ZM329.146 1241.09C311.892 1203.86 302.5 1150.18 302.5 1078.5H262.5C262.5 1152.82 272.108 1213.14 292.854 1257.91L329.146 1241.09ZM302.5 1078.5V1015.5H262.5V1078.5H302.5ZM282.5 1035.5H456.5V995.5H282.5V1035.5ZM463.475 996.756C421.959 981.308 390.329 963.388 367.713 943.486L341.287 973.514C368.671 997.612 405.041 1017.69 449.525 1034.24L463.475 996.756ZM368.338 944.06C347.135 923.741 331.852 897.932 322.73 866.006L284.27 876.994C295.148 915.068 313.865 947.259 340.662 972.94L368.338 944.06ZM322.77 866.147C313.431 832.525 308.5 788.496 308.5 733.5H268.5C268.5 790.504 273.569 838.475 284.23 876.853L322.77 866.147ZM308.5 733.5C308.5 665.788 316.894 614.323 332.407 577.823L295.593 562.177C277.106 605.677 268.5 663.212 268.5 733.5H308.5ZM332.407 577.823C347.382 542.588 372.088 517.882 407.323 502.907L391.677 466.093C346.912 485.118 314.618 517.412 295.593 562.177L332.407 577.823ZM407.323 502.907C443.796 487.405 495.742 479 564.5 479V439C493.258 439 435.204 447.595 391.677 466.093L407.323 502.907ZM564.5 479C653.578 479 716.653 498.29 757.305 533.388C797.394 568.001 819 620.911 819 696H859C859 613.088 834.856 547.499 783.445 503.112C732.597 459.21 658.422 439 564.5 439V479ZM819 696V828H859V696H819ZM839 808H725V848H839V808ZM715.827 845.772C745.231 860.949 766.906 877.476 781.761 894.953L812.239 869.047C793.094 846.524 766.769 827.051 734.173 810.228L715.827 845.772ZM782.134 895.379C797.609 912.574 809.286 935.024 816.634 963.498L855.366 953.502C846.714 919.976 832.391 891.426 811.866 868.621L782.134 895.379ZM816.675 963.653C824.053 991.32 828 1028.4 828 1075.5H868C868 1026.6 863.947 985.68 855.325 953.347L816.675 963.653ZM828 1075.5C828 1175.88 803.578 1242.45 759.787 1280.99L786.213 1311.01C842.422 1261.55 868 1181.12 868 1075.5H828ZM759.959 1280.84C714.865 1319.62 648.222 1340.5 557 1340.5V1380.5C653.778 1380.5 731.135 1358.38 786.041 1311.16L759.959 1280.84ZM557 1353.5C644.82 1353.5 715.587 1333.36 766.434 1290.26L740.566 1259.74C699.413 1294.64 639.18 1313.5 557 1313.5V1353.5ZM766.434 1290.26C818.926 1245.75 842.5 1172.1 842.5 1075.5H802.5C802.5 1166.9 780.074 1226.25 740.566 1259.74L766.434 1290.26ZM842.5 1075.5C842.5 1020.79 837.989 976.932 828.101 945.072L789.899 956.928C798.011 983.068 802.5 1022.21 802.5 1075.5H842.5ZM828.101 945.072C817.766 911.769 798.008 885.019 769.246 865.461L746.754 898.539C767.992 912.981 782.234 932.231 789.899 956.928L828.101 945.072ZM769.686 865.769C742.614 846.277 704.239 827.542 655.522 809.273L641.478 846.727C688.761 864.458 723.386 881.723 746.314 898.231L769.686 865.769ZM655.522 809.273C639.703 803.341 628.488 798.633 621.444 795.111L603.556 830.889C612.512 835.367 625.297 840.659 641.478 846.727L655.522 809.273ZM621.444 795.111C614.018 791.398 607.763 787.805 602.594 784.359L580.406 817.641C587.237 822.195 594.982 826.602 603.556 830.889L621.444 795.111ZM591.5 821H813.5V781H591.5V821ZM833.5 801V696H793.5V801H833.5ZM833.5 696C833.5 621.939 811.385 563.053 764.144 523.211C717.556 483.92 649.83 466 564.5 466V506C645.17 506 701.944 523.08 738.356 553.789C774.115 583.947 793.5 630.061 793.5 696H833.5ZM564.5 466C500.187 466 447.511 474.109 407.877 491.724L424.123 528.276C456.489 513.891 502.813 506 564.5 506V466ZM407.877 491.724C367.353 509.735 337.735 539.353 319.724 579.877L356.276 596.123C370.265 564.647 392.647 542.265 424.123 528.276L407.877 491.724ZM319.538 580.308C303.114 619.727 295.5 671.186 295.5 733.5H335.5C335.5 673.814 342.886 628.273 356.462 595.692L319.538 580.308ZM295.5 733.5C295.5 799.136 304.694 854.224 324.262 897.707L360.738 881.293C344.306 844.776 335.5 795.864 335.5 733.5H295.5ZM324.262 897.707C344.78 943.304 384.105 978.268 439.119 1003.66L455.881 967.341C406.895 944.732 376.22 915.696 360.738 881.293L324.262 897.707ZM438.871 1003.54C461.723 1014.47 480.439 1023.83 495.088 1031.65L513.912 996.353C498.561 988.166 479.277 978.528 456.129 967.457L438.871 1003.54ZM495.556 1031.89C510.554 1039.39 522.732 1047.12 532.335 1054.98L557.665 1024.02C545.268 1013.88 530.446 1004.61 513.444 996.111L495.556 1031.89ZM545 1019.5H308V1059.5H545V1019.5ZM288 1039.5V1078.5H328V1039.5H288ZM288 1078.5C288 1176.93 307.547 1251.14 352.735 1294.01L380.265 1264.99C347.453 1233.86 328 1174.07 328 1078.5H288ZM353.121 1294.37C398.481 1335.19 467.934 1353.5 557 1353.5V1313.5C472.066 1313.5 414.52 1295.81 379.879 1264.63L353.121 1294.37ZM557 1300C477.093 1300 423.001 1283.32 390.336 1254.1L363.664 1283.9C406.999 1322.68 472.907 1340 557 1340V1300ZM390.533 1254.27C360.027 1226.24 341.5 1170.25 341.5 1078.5H301.5C301.5 1172.75 319.973 1243.76 363.467 1283.73L390.533 1254.27ZM341.5 1078.5V1053H301.5V1078.5H341.5ZM321.5 1073H537.5V1033H321.5V1073ZM517.5 1053V1132.5H557.5V1053H517.5ZM517.5 1132.5C517.5 1145.94 518.013 1157.63 519.129 1167.4C520.209 1176.84 521.99 1185.85 525.224 1193.12L561.776 1176.88C561.01 1175.15 559.791 1170.91 558.871 1162.85C557.987 1155.12 557.5 1145.06 557.5 1132.5H517.5ZM526.017 1194.71C533.931 1208.96 547.056 1218.5 564.5 1218.5V1178.5C563.93 1178.5 563.638 1178.43 563.54 1178.4C563.453 1178.38 563.398 1178.35 563.315 1178.3C563.174 1178.21 562.255 1177.58 560.983 1175.29L526.017 1194.71ZM564.5 1218.5C573.363 1218.5 582.321 1215.97 589.794 1209.64C597.022 1203.53 601.085 1195.37 603.295 1187.26L564.705 1176.74C564.319 1178.15 563.947 1178.92 563.761 1179.24C563.593 1179.53 563.619 1179.39 563.956 1179.11C564.315 1178.8 564.721 1178.59 565.019 1178.5C565.276 1178.41 565.167 1178.5 564.5 1178.5V1218.5ZM602.796 1188.83C608.123 1174.19 610 1151.48 610 1123.5H570C570 1151.52 567.877 1167.81 565.204 1175.17L602.796 1188.83ZM610 1123.5C610 1091.77 604.796 1064.44 591.96 1043.9L558.04 1065.1C565.204 1076.56 570 1095.23 570 1123.5H610ZM592.432 1044.69C581.206 1024.74 563.613 1008.84 541.138 996.476L521.862 1031.52C539.387 1041.16 550.794 1052.26 557.568 1064.31L592.432 1044.69ZM541.79 996.85C520.887 984.308 493.634 970.455 460.276 955.293L443.724 991.707C476.366 1006.54 502.113 1019.69 521.21 1031.15L541.79 996.85ZM460.498 955.395C414.353 933.735 385.633 906.62 371.174 875.15L334.826 891.85C354.367 934.38 391.647 967.265 443.502 991.605L460.498 955.395ZM371.256 875.333C355.827 840.843 347.5 793.941 347.5 733.5H307.5C307.5 797.059 316.173 850.157 334.744 891.667L371.256 875.333ZM347.5 733.5C347.5 676.774 354.395 633.711 366.994 603.115L330.006 587.885C314.605 625.289 307.5 674.226 307.5 733.5H347.5ZM366.798 603.573C379.74 574.238 400.444 554.005 429.615 541.994L414.385 505.006C375.556 520.995 347.26 548.762 330.202 587.427L366.798 603.573ZM429.878 541.883C461.37 528.386 505.822 521 564.5 521V481C503.178 481 452.63 488.614 414.122 505.117L429.878 541.883ZM564.5 521C640.739 521 694.198 536.859 728.37 565.155C761.819 592.851 780 635.181 780 696H820C820 626.819 798.931 571.649 753.88 534.345C709.552 497.64 645.261 481 564.5 481V521ZM780 696V787.5H820V696H780ZM800 767.5H594.5V807.5H800V767.5ZM614.5 787.5V765H574.5V787.5H614.5ZM614.5 765C614.5 745.697 613.994 729.149 612.941 715.466L573.059 718.534C574.006 730.851 574.5 746.303 574.5 765H614.5ZM613 717C613 702.572 612.487 689.871 611.401 679.01L571.599 682.99C572.513 692.129 573 703.428 573 717H613ZM611.472 679.949C610.858 668.283 607.993 656.176 600.048 646.742C591.459 636.542 579.553 632.5 567.5 632.5V672.5C569.156 672.5 569.791 672.762 569.802 672.766C569.808 672.769 569.732 672.736 569.622 672.656C569.572 672.619 569.529 672.583 569.496 672.552C569.463 672.521 569.449 672.504 569.452 672.508C569.508 672.574 571.142 674.717 571.528 682.051L611.472 679.949ZM567.5 632.5C551.294 632.5 539.775 642.324 532.54 653.9L566.46 675.1C567.899 672.798 568.815 672.16 568.844 672.141C568.846 672.14 568.798 672.172 568.702 672.218C568.604 672.265 568.475 672.318 568.319 672.366C567.983 672.469 567.685 672.5 567.5 672.5V632.5ZM532.54 653.9C527.728 661.599 525.409 671.57 524.065 681.249C522.64 691.508 522 704.015 522 718.5H562C562 704.985 562.61 694.492 563.685 686.751C564.22 682.897 564.834 680.003 565.435 677.918C566.061 675.748 566.517 675.009 566.46 675.1L532.54 653.9ZM522 718.5C522 748.599 526.021 774.349 536.635 792.923L571.365 773.077C565.979 763.651 562 746.401 562 718.5H522ZM537.176 793.815C548.416 811.299 564.06 824.325 583.484 832.823L599.516 796.177C586.94 790.675 577.584 782.7 570.824 772.185L537.176 793.815ZM583.484 832.823C599.541 839.848 618.089 847.869 639.122 856.883L654.878 820.117C633.911 811.131 615.459 803.152 599.516 796.177L583.484 832.823ZM639.729 857.132C679.867 872.795 710.078 888.536 731.112 904.083L754.888 871.916C729.922 853.464 696.133 836.205 654.271 819.868L639.729 857.132ZM731.44 904.32C751.873 918.794 766.394 938.293 775.093 963.52L812.907 950.48C801.606 917.706 782.127 891.206 754.56 871.679L731.44 904.32ZM775.165 963.727C784.034 988.559 789 1025.4 789 1075.5H829C829 1023.6 823.966 981.441 812.835 950.273L775.165 963.727ZM789 1075.5C789 1161.84 767.606 1217.68 730.128 1249.19L755.872 1279.81C806.394 1237.32 829 1167.16 829 1075.5H789ZM730.128 1249.19C690.921 1282.16 634.12 1300 557 1300V1340C639.88 1340 707.079 1320.84 755.872 1279.81L730.128 1249.19ZM594.17 778.448C588.587 773.563 583.69 766.987 579.707 758.224L543.293 774.776C549.31 788.013 557.413 799.437 567.83 808.552L594.17 778.448ZM579.707 758.224C576.458 751.076 574 738.449 574 718.5H534C534 740.551 536.542 759.924 543.293 774.776L579.707 758.224ZM574 718.5C574 697.091 575.121 685.878 576.23 681.994L537.77 671.006C534.879 681.122 534 697.909 534 718.5H574ZM575.383 684.378C576.364 682.09 576.767 682.017 576.017 682.767C575.558 683.226 574.595 684.06 573.051 684.78C571.435 685.534 569.525 686 567.5 686V646C550.066 646 541.849 661.08 538.617 668.622L575.383 684.378ZM567.5 686C563.797 686 560.674 684.534 558.672 682.832C557.02 681.428 556.633 680.316 556.904 680.891C557.13 681.372 557.611 682.606 558.157 684.925C558.689 687.188 559.201 690.127 559.637 693.837L599.363 689.163C598.282 679.978 596.48 671.049 593.096 663.859C589.866 656.994 582.144 646 567.5 646V686ZM559.654 693.981C560.509 700.816 561 710.394 561 723H601C601 709.606 600.491 698.184 599.346 689.019L559.654 693.981ZM561 723C561 723.023 561 723.047 561 723.07C561 723.094 561 723.117 561 723.141C561 723.164 561 723.188 561 723.211C561 723.235 561 723.258 561 723.282C561 723.305 561 723.329 561 723.352C561 723.376 561 723.399 561 723.423C561 723.446 561 723.47 561 723.493C561 723.517 561 723.54 561 723.564C561 723.588 561 723.611 561 723.635C561 723.658 561 723.682 561 723.705C561 723.729 561 723.753 561 723.776C561 723.8 561 723.823 561 723.847C561 723.871 561 723.894 561 723.918C561 723.942 561 723.965 561 723.989C561 724.012 561 724.036 561 724.06C561 724.083 561 724.107 561 724.131C561 724.155 561 724.178 561 724.202C561 724.226 561 724.249 561 724.273C561 724.297 561 724.32 561 724.344C561 724.368 561 724.392 561 724.415C561 724.439 561 724.463 561 724.487C561 724.51 561 724.534 561 724.558C561 724.582 561 724.605 561 724.629C561 724.653 561 724.677 561 724.701C561 724.724 561 724.748 561 724.772C561 724.796 561 724.82 561 724.844C561 724.867 561 724.891 561 724.915C561 724.939 561 724.963 561 724.987C561 725.011 561 725.034 561 725.058C561 725.082 561 725.106 561 725.13C561 725.154 561 725.178 561 725.202C561 725.226 561 725.249 561 725.273C561 725.297 561 725.321 561 725.345C561 725.369 561 725.393 561 725.417C561 725.441 561 725.465 561 725.489C561 725.513 561 725.537 561 725.561C561 725.585 561 725.609 561 725.633C561 725.657 561 725.681 561 725.705C561 725.729 561 725.753 561 725.777C561 725.801 561 725.825 561 725.849C561 725.873 561 725.897 561 725.921C561 725.945 561 725.969 561 725.993C561 726.018 561 726.042 561 726.066C561 726.09 561 726.114 561 726.138C561 726.162 561 726.186 561 726.21C561 726.235 561 726.259 561 726.283C561 726.307 561 726.331 561 726.355C561 726.379 561 726.404 561 726.428C561 726.452 561 726.476 561 726.5C561 726.524 561 726.549 561 726.573C561 726.597 561 726.621 561 726.645C561 726.67 561 726.694 561 726.718C561 726.742 561 726.767 561 726.791C561 726.815 561 726.839 561 726.864C561 726.888 561 726.912 561 726.936C561 726.961 561 726.985 561 727.009C561 727.034 561 727.058 561 727.082C561 727.106 561 727.131 561 727.155C561 727.179 561 727.204 561 727.228C561 727.252 561 727.277 561 727.301C561 727.325 561 727.35 561 727.374C561 727.399 561 727.423 561 727.447C561 727.472 561 727.496 561 727.521C561 727.545 561 727.569 561 727.594C561 727.618 561 727.643 561 727.667C561 727.691 561 727.716 561 727.74C561 727.765 561 727.789 561 727.814C561 727.838 561 727.863 561 727.887C561 727.912 561 727.936 561 727.961C561 727.985 561 728.01 561 728.034C561 728.059 561 728.083 561 728.108C561 728.132 561 728.157 561 728.181C561 728.206 561 728.23 561 728.255C561 728.279 561 728.304 561 728.328C561 728.353 561 728.378 561 728.402C561 728.427 561 728.451 561 728.476C561 728.501 561 728.525 561 728.55C561 728.574 561 728.599 561 728.624C561 728.648 561 728.673 561 728.698C561 728.722 561 728.747 561 728.771C561 728.796 561 728.821 561 728.845C561 728.87 561 728.895 561 728.92C561 728.944 561 728.969 561 728.994C561 729.018 561 729.043 561 729.068C561 729.092 561 729.117 561 729.142C561 729.167 561 729.191 561 729.216C561 729.241 561 729.266 561 729.29C561 729.315 561 729.34 561 729.365C561 729.39 561 729.414 561 729.439C561 729.464 561 729.489 561 729.513C561 729.538 561 729.563 561 729.588C561 729.613 561 729.638 561 729.662C561 729.687 561 729.712 561 729.737C561 729.762 561 729.787 561 729.812C561 729.836 561 729.861 561 729.886C561 729.911 561 729.936 561 729.961C561 729.986 561 730.011 561 730.036C561 730.061 561 730.085 561 730.11C561 730.135 561 730.16 561 730.185C561 730.21 561 730.235 561 730.26C561 730.285 561 730.31 561 730.335C561 730.36 561 730.385 561 730.41C561 730.435 561 730.46 561 730.485C561 730.51 561 730.535 561 730.56C561 730.585 561 730.61 561 730.635C561 730.66 561 730.685 561 730.71C561 730.735 561 730.76 561 730.785C561 730.811 561 730.836 561 730.861C561 730.886 561 730.911 561 730.936C561 730.961 561 730.986 561 731.011C561 731.036 561 731.062 561 731.087C561 731.112 561 731.137 561 731.162C561 731.187 561 731.212 561 731.238C561 731.263 561 731.288 561 731.313C561 731.338 561 731.363 561 731.389C561 731.414 561 731.439 561 731.464C561 731.489 561 731.515 561 731.54C561 731.565 561 731.59 561 731.616C561 731.641 561 731.666 561 731.691C561 731.717 561 731.742 561 731.767C561 731.792 561 731.818 561 731.843C561 731.868 561 731.893 561 731.919C561 731.944 561 731.969 561 731.995C561 732.02 561 732.045 561 732.071C561 732.096 561 732.121 561 732.147C561 732.172 561 732.197 561 732.223C561 732.248 561 732.273 561 732.299C561 732.324 561 732.35 561 732.375C561 732.4 561 732.426 561 732.451C561 732.477 561 732.502 561 732.527C561 732.553 561 732.578 561 732.604C561 732.629 561 732.655 561 732.68C561 732.705 561 732.731 561 732.756C561 732.782 561 732.807 561 732.833C561 732.858 561 732.884 561 732.909C561 732.935 561 732.96 561 732.986C561 733.011 561 733.037 561 733.062C561 733.088 561 733.113 561 733.139C561 733.165 561 733.19 561 733.216C561 733.241 561 733.267 561 733.292C561 733.318 561 733.343 561 733.369C561 733.395 561 733.42 561 733.446C561 733.471 561 733.497 561 733.523C561 733.548 561 733.574 561 733.6C561 733.625 561 733.651 561 733.677C561 733.702 561 733.728 561 733.753C561 733.779 561 733.805 561 733.831C561 733.856 561 733.882 561 733.908C561 733.933 561 733.959 561 733.985C561 734.01 561 734.036 561 734.062C561 734.088 561 734.113 561 734.139C561 734.165 561 734.191 561 734.216C561 734.242 561 734.268 561 734.294C561 734.319 561 734.345 561 734.371C561 734.397 561 734.423 561 734.448C561 734.474 561 734.5 561 734.526C561 734.552 561 734.577 561 734.603C561 734.629 561 734.655 561 734.681C561 734.707 561 734.732 561 734.758C561 734.784 561 734.81 561 734.836C561 734.862 561 734.888 561 734.914C561 734.939 561 734.965 561 734.991C561 735.017 561 735.043 561 735.069C561 735.095 561 735.121 561 735.147C561 735.173 561 735.199 561 735.225C561 735.251 561 735.277 561 735.303C561 735.329 561 735.355 561 735.38C561 735.406 561 735.432 561 735.458C561 735.484 561 735.51 561 735.536C561 735.563 561 735.589 561 735.615C561 735.641 561 735.667 561 735.693C561 735.719 561 735.745 561 735.771C561 735.797 561 735.823 561 735.849C561 735.875 561 735.901 561 735.927C561 735.953 561 735.98 561 736.006C561 736.032 561 736.058 561 736.084C561 736.11 561 736.136 561 736.162C561 736.188 561 736.215 561 736.241C561 736.267 561 736.293 561 736.319C561 736.345 561 736.372 561 736.398C561 736.424 561 736.45 561 736.476C561 736.503 561 736.529 561 736.555C561 736.581 561 736.607 561 736.634C561 736.66 561 736.686 561 736.712C561 736.739 561 736.765 561 736.791C561 736.817 561 736.844 561 736.87C561 736.896 561 736.923 561 736.949C561 736.975 561 737.001 561 737.028C561 737.054 561 737.08 561 737.107C561 737.133 561 737.159 561 737.186C561 737.212 561 737.238 561 737.265C561 737.291 561 737.317 561 737.344C561 737.37 561 737.396 561 737.423C561 737.449 561 737.476 561 737.502C561 737.528 561 737.555 561 737.581C561 737.608 561 737.634 561 737.66C561 737.687 561 737.713 561 737.74C561 737.766 561 737.793 561 737.819C561 737.846 561 737.872 561 737.899C561 737.925 561 737.952 561 737.978C561 738.004 561 738.031 561 738.057C561 738.084 561 738.111 561 738.137C561 738.164 561 738.19 561 738.217C561 738.243 561 738.27 561 738.296C561 738.323 561 738.349 561 738.376C561 738.402 561 738.429 561 738.456C561 738.482 561 738.509 561 738.535C561 738.562 561 738.589 561 738.615C561 738.642 561 738.668 561 738.695C561 738.722 561 738.748 561 738.775C561 738.802 561 738.828 561 738.855C561 738.882 561 738.908 561 738.935C561 738.962 561 738.988 561 739.015C561 739.042 561 739.068 561 739.095C561 739.122 561 739.148 561 739.175C561 739.202 561 739.229 561 739.255C561 739.282 561 739.309 561 739.336C561 739.362 561 739.389 561 739.416C561 739.443 561 739.469 561 739.496C561 739.523 561 739.55 561 739.577C561 739.603 561 739.63 561 739.657C561 739.684 561 739.711 561 739.737C561 739.764 561 739.791 561 739.818C561 739.845 561 739.872 561 739.898C561 739.925 561 739.952 561 739.979C561 740.006 561 740.033 561 740.06C561 740.087 561 740.113 561 740.14C561 740.167 561 740.194 561 740.221C561 740.248 561 740.275 561 740.302C561 740.329 561 740.356 561 740.383C561 740.41 561 740.437 561 740.463C561 740.49 561 740.517 561 740.544C561 740.571 561 740.598 561 740.625C561 740.652 561 740.679 561 740.706C561 740.733 561 740.76 561 740.787C561 740.814 561 740.841 561 740.869C561 740.896 561 740.923 561 740.95C561 740.977 561 741.004 561 741.031C561 741.058 561 741.085 561 741.112C561 741.139 561 741.166 561 741.193C561 741.22 561 741.248 561 741.275C561 741.302 561 741.329 561 741.356C561 741.383 561 741.41 561 741.437C561 741.465 561 741.492 561 741.519C561 741.546 561 741.573 561 741.6C561 741.628 561 741.655 561 741.682C561 741.709 561 741.736 561 741.764C561 741.791 561 741.818 561 741.845C561 741.872 561 741.9 561 741.927C561 741.954 561 741.981 561 742.009C561 742.036 561 742.063 561 742.09C561 742.118 561 742.145 561 742.172C561 742.199 561 742.227 561 742.254C561 742.281 561 742.309 561 742.336C561 742.363 561 742.391 561 742.418C561 742.445 561 742.473 561 742.5C561 742.527 561 742.555 561 742.582C561 742.609 561 742.637 561 742.664C561 742.692 561 742.719 561 742.746C561 742.774 561 742.801 561 742.828C561 742.856 561 742.883 561 742.911C561 742.938 561 742.966 561 742.993C561 743.02 561 743.048 561 743.075C561 743.103 561 743.13 561 743.158C561 743.185 561 743.213 561 743.24C561 743.268 561 743.295 561 743.323C561 743.35 561 743.378 561 743.405C561 743.433 561 743.46 561 743.488C561 743.515 561 743.543 561 743.57C561 743.598 561 743.625 561 743.653C561 743.68 561 743.708 561 743.736C561 743.763 561 743.791 561 743.818C561 743.846 561 743.874 561 743.901C561 743.929 561 743.956 561 743.984C561 744.012 561 744.039 561 744.067C561 744.094 561 744.122 561 744.15C561 744.177 561 744.205 561 744.233C561 744.26 561 744.288 561 744.316C561 744.343 561 744.371 561 744.399C561 744.426 561 744.454 561 744.482C561 744.51 561 744.537 561 744.565C561 744.593 561 744.621 561 744.648C561 744.676 561 744.704 561 744.732C561 744.759 561 744.787 561 744.815C561 744.843 561 744.87 561 744.898C561 744.926 561 744.954 561 744.982C561 745.009 561 745.037 561 745.065C561 745.093 561 745.121 561 745.148C561 745.176 561 745.204 561 745.232C561 745.26 561 745.288 561 745.315C561 745.343 561 745.371 561 745.399C561 745.427 561 745.455 561 745.483C561 745.511 561 745.539 561 745.566C561 745.594 561 745.622 561 745.65C561 745.678 561 745.706 561 745.734C561 745.762 561 745.79 561 745.818C561 745.846 561 745.874 561 745.902C561 745.93 561 745.958 561 745.986C561 746.014 561 746.042 561 746.07C561 746.098 561 746.126 561 746.154C561 746.182 561 746.21 561 746.238C561 746.266 561 746.294 561 746.322C561 746.35 561 746.378 561 746.406C561 746.434 561 746.462 561 746.49C561 746.518 561 746.546 561 746.574C561 746.603 561 746.631 561 746.659C561 746.687 561 746.715 561 746.743C561 746.771 561 746.799 561 746.827C561 746.856 561 746.884 561 746.912C561 746.94 561 746.968 561 746.996C561 747.025 561 747.053 561 747.081C561 747.109 561 747.137 561 747.166C561 747.194 561 747.222 561 747.25C561 747.278 561 747.307 561 747.335C561 747.363 561 747.391 561 747.419C561 747.448 561 747.476 561 747.504C561 747.533 561 747.561 561 747.589C561 747.617 561 747.646 561 747.674C561 747.702 561 747.73 561 747.759C561 747.787 561 747.815 561 747.844C561 747.872 561 747.9 561 747.929C561 747.957 561 747.985 561 748.014C561 748.042 561 748.07 561 748.099C561 748.127 561 748.156 561 748.184C561 748.212 561 748.241 561 748.269C561 748.297 561 748.326 561 748.354C561 748.383 561 748.411 561 748.44C561 748.468 561 748.496 561 748.525C561 748.553 561 748.582 561 748.61C561 748.639 561 748.667 561 748.696C561 748.724 561 748.753 561 748.781C561 748.81 561 748.838 561 748.867C561 748.895 561 748.924 561 748.952C561 748.981 561 749.009 561 749.038C561 749.066 561 749.095 561 749.123C561 749.152 561 749.18 561 749.209C561 749.238 561 749.266 561 749.295C561 749.323 561 749.352 561 749.38C561 749.409 561 749.438 561 749.466C561 749.495 561 749.523 561 749.552C561 749.581 561 749.609 561 749.638C561 749.667 561 749.695 561 749.724C561 749.753 561 749.781 561 749.81C561 749.839 561 749.867 561 749.896C561 749.925 561 749.953 561 749.982C561 750.011 561 750.039 561 750.068C561 750.097 561 750.126 561 750.154C561 750.183 561 750.212 561 750.241C561 750.269 561 750.298 561 750.327C561 750.356 561 750.384 561 750.413C561 750.442 561 750.471 561 750.5C561 750.528 561 750.557 561 750.586C561 750.615 561 750.644 561 750.672C561 750.701 561 750.73 561 750.759C561 750.788 561 750.817 561 750.845C561 750.874 561 750.903 561 750.932C561 750.961 561 750.99 561 751.019C561 751.047 561 751.076 561 751.105C561 751.134 561 751.163 561 751.192C561 751.221 561 751.25 561 751.279C561 751.308 561 751.337 561 751.366C561 751.395 561 751.423 561 751.452C561 751.481 561 751.51 561 751.539C561 751.568 561 751.597 561 751.626C561 751.655 561 751.684 561 751.713C561 751.742 561 751.771 561 751.8C561 751.829 561 751.858 561 751.887C561 751.916 561 751.946 561 751.975C561 752.004 561 752.033 561 752.062C561 752.091 561 752.12 561 752.149C561 752.178 561 752.207 561 752.236C561 752.265 561 752.294 561 752.324C561 752.353 561 752.382 561 752.411C561 752.44 561 752.469 561 752.498C561 752.528 561 752.557 561 752.586C561 752.615 561 752.644 561 752.673C561 752.702 561 752.732 561 752.761C561 752.79 561 752.819 561 752.848C561 752.878 561 752.907 561 752.936C561 752.965 561 752.995 561 753.024C561 753.053 561 753.082 561 753.112C561 753.141 561 753.17 561 753.199C561 753.229 561 753.258 561 753.287C561 753.316 561 753.346 561 753.375C561 753.404 561 753.434 561 753.463C561 753.492 561 753.522 561 753.551C561 753.58 561 753.61 561 753.639C561 753.668 561 753.698 561 753.727C561 753.756 561 753.786 561 753.815C561 753.844 561 753.874 561 753.903C561 753.933 561 753.962 561 753.991C561 754.021 561 754.05 561 754.08C561 754.109 561 754.138 561 754.168C561 754.197 561 754.227 561 754.256C561 754.286 561 754.315 561 754.345C561 754.374 561 754.403 561 754.433C561 754.462 561 754.492 561 754.521C561 754.551 561 754.58 561 754.61C561 754.639 561 754.669 561 754.698C561 754.728 561 754.758 561 754.787C561 754.817 561 754.846 561 754.876C561 754.905 561 754.935 561 754.964C561 754.994 561 755.024 561 755.053C561 755.083 561 755.112 561 755.142C561 755.172 561 755.201 561 755.231C561 755.26 561 755.29 561 755.32C561 755.349 561 755.379 561 755.409C561 755.438 561 755.468 561 755.498C561 755.527 561 755.557 561 755.587C561 755.616 561 755.646 561 755.676C561 755.705 561 755.735 561 755.765C561 755.794 561 755.824 561 755.854C561 755.884 561 755.913 561 755.943C561 755.973 561 756.003 561 756.032C561 756.062 561 756.092 561 756.122C561 756.151 561 756.181 561 756.211C561 756.241 561 756.27 561 756.3C561 756.33 561 756.36 561 756.39C561 756.42 561 756.449 561 756.479C561 756.509 561 756.539 561 756.569C561 756.599 561 756.628 561 756.658C561 756.688 561 756.718 561 756.748C561 756.778 561 756.808 561 756.838C561 756.867 561 756.897 561 756.927C561 756.957 561 756.987 561 757.017C561 757.047 561 757.077 561 757.107C561 757.137 561 757.167 561 757.197C561 757.227 561 757.257 561 757.286C561 757.316 561 757.346 561 757.376C561 757.406 561 757.436 561 757.466C561 757.496 561 757.526 561 757.556C561 757.586 561 757.616 561 757.646C561 757.676 561 757.707 561 757.737C561 757.767 561 757.797 561 757.827C561 757.857 561 757.887 561 757.917C561 757.947 561 757.977 561 758.007C561 758.037 561 758.067 561 758.097C561 758.128 561 758.158 561 758.188C561 758.218 561 758.248 561 758.278C561 758.308 561 758.338 561 758.369C561 758.399 561 758.429 561 758.459C561 758.489 561 758.519 561 758.55C561 758.58 561 758.61 561 758.64C561 758.67 561 758.701 561 758.731C561 758.761 561 758.791 561 758.821C561 758.852 561 758.882 561 758.912C561 758.942 561 758.973 561 759.003C561 759.033 561 759.063 561 759.094C561 759.124 561 759.154 561 759.185C561 759.215 561 759.245 561 759.275C561 759.306 561 759.336 561 759.366C561 759.397 561 759.427 561 759.457C561 759.488 561 759.518 561 759.548C561 759.579 561 759.609 561 759.639C561 759.67 561 759.7 561 759.731C561 759.761 561 759.791 561 759.822C561 759.852 561 759.883 561 759.913C561 759.943 561 759.974 561 760.004C561 760.035 561 760.065 561 760.096C561 760.126 561 760.156 561 760.187C561 760.217 561 760.248 561 760.278C561 760.309 561 760.339 561 760.37C561 760.4 561 760.431 561 760.461C561 760.492 561 760.522 561 760.553C561 760.583 561 760.614 561 760.644C561 760.675 561 760.705 561 760.736C561 760.766 561 760.797 561 760.828C561 760.858 561 760.889 561 760.919C561 760.95 561 760.98 561 761.011C561 761.042 561 761.072 561 761.103C561 761.133 561 761.164 561 761.195C561 761.225 561 761.256 561 761.287C561 761.317 561 761.348 561 761.379C561 761.409 561 761.44 561 761.471C561 761.501 561 761.532 561 761.563C561 761.593 561 761.624 561 761.655C561 761.685 561 761.716 561 761.747C561 761.777 561 761.808 561 761.839C561 761.87 561 761.9 561 761.931C561 761.962 561 761.993 561 762.023C561 762.054 561 762.085 561 762.116C561 762.146 561 762.177 561 762.208C561 762.239 561 762.27 561 762.3C561 762.331 561 762.362 561 762.393C561 762.424 561 762.455 561 762.485C561 762.516 561 762.547 561 762.578C561 762.609 561 762.64 561 762.671C561 762.701 561 762.732 561 762.763C561 762.794 561 762.825 561 762.856C561 762.887 561 762.918 561 762.949C561 762.979 561 763.01 561 763.041C561 763.072 561 763.103 561 763.134C561 763.165 561 763.196 561 763.227C561 763.258 561 763.289 561 763.32C561 763.351 561 763.382 561 763.413C561 763.444 561 763.475 561 763.506C561 763.537 561 763.568 561 763.599C561 763.63 561 763.661 561 763.692C561 763.723 561 763.754 561 763.785C561 763.816 561 763.847 561 763.878C561 763.909 561 763.94 561 763.971C561 764.003 561 764.034 561 764.065C561 764.096 561 764.127 561 764.158C561 764.189 561 764.22 561 764.251C561 764.283 561 764.314 561 764.345C561 764.376 561 764.407 561 764.438C561 764.469 561 764.501 561 764.532C561 764.563 561 764.594 561 764.625C561 764.657 561 764.688 561 764.719C561 764.75 561 764.781 561 764.813C561 764.844 561 764.875 561 764.906C561 764.937 561 764.969 561 765H601C601 764.969 601 764.937 601 764.906C601 764.875 601 764.844 601 764.813C601 764.781 601 764.75 601 764.719C601 764.688 601 764.657 601 764.625C601 764.594 601 764.563 601 764.532C601 764.501 601 764.469 601 764.438C601 764.407 601 764.376 601 764.345C601 764.314 601 764.283 601 764.251C601 764.22 601 764.189 601 764.158C601 764.127 601 764.096 601 764.065C601 764.034 601 764.003 601 763.971C601 763.94 601 763.909 601 763.878C601 763.847 601 763.816 601 763.785C601 763.754 601 763.723 601 763.692C601 763.661 601 763.63 601 763.599C601 763.568 601 763.537 601 763.506C601 763.475 601 763.444 601 763.413C601 763.382 601 763.351 601 763.32C601 763.289 601 763.258 601 763.227C601 763.196 601 763.165 601 763.134C601 763.103 601 763.072 601 763.041C601 763.01 601 762.979 601 762.949C601 762.918 601 762.887 601 762.856C601 762.825 601 762.794 601 762.763C601 762.732 601 762.701 601 762.671C601 762.64 601 762.609 601 762.578C601 762.547 601 762.516 601 762.485C601 762.455 601 762.424 601 762.393C601 762.362 601 762.331 601 762.3C601 762.27 601 762.239 601 762.208C601 762.177 601 762.146 601 762.116C601 762.085 601 762.054 601 762.023C601 761.993 601 761.962 601 761.931C601 761.9 601 761.87 601 761.839C601 761.808 601 761.777 601 761.747C601 761.716 601 761.685 601 761.655C601 761.624 601 761.593 601 761.563C601 761.532 601 761.501 601 761.471C601 761.44 601 761.409 601 761.379C601 761.348 601 761.317 601 761.287C601 761.256 601 761.225 601 761.195C601 761.164 601 761.133 601 761.103C601 761.072 601 761.042 601 761.011C601 760.98 601 760.95 601 760.919C601 760.889 601 760.858 601 760.828C601 760.797 601 760.766 601 760.736C601 760.705 601 760.675 601 760.644C601 760.614 601 760.583 601 760.553C601 760.522 601 760.492 601 760.461C601 760.431 601 760.4 601 760.37C601 760.339 601 760.309 601 760.278C601 760.248 601 760.217 601 760.187C601 760.156 601 760.126 601 760.096C601 760.065 601 760.035 601 760.004C601 759.974 601 759.943 601 759.913C601 759.883 601 759.852 601 759.822C601 759.791 601 759.761 601 759.731C601 759.7 601 759.67 601 759.639C601 759.609 601 759.579 601 759.548C601 759.518 601 759.488 601 759.457C601 759.427 601 759.397 601 759.366C601 759.336 601 759.306 601 759.275C601 759.245 601 759.215 601 759.185C601 759.154 601 759.124 601 759.094C601 759.063 601 759.033 601 759.003C601 758.973 601 758.942 601 758.912C601 758.882 601 758.852 601 758.821C601 758.791 601 758.761 601 758.731C601 758.701 601 758.67 601 758.64C601 758.61 601 758.58 601 758.55C601 758.519 601 758.489 601 758.459C601 758.429 601 758.399 601 758.369C601 758.338 601 758.308 601 758.278C601 758.248 601 758.218 601 758.188C601 758.158 601 758.128 601 758.097C601 758.067 601 758.037 601 758.007C601 757.977 601 757.947 601 757.917C601 757.887 601 757.857 601 757.827C601 757.797 601 757.767 601 757.737C601 757.707 601 757.676 601 757.646C601 757.616 601 757.586 601 757.556C601 757.526 601 757.496 601 757.466C601 757.436 601 757.406 601 757.376C601 757.346 601 757.316 601 757.286C601 757.257 601 757.227 601 757.197C601 757.167 601 757.137 601 757.107C601 757.077 601 757.047 601 757.017C601 756.987 601 756.957 601 756.927C601 756.897 601 756.867 601 756.838C601 756.808 601 756.778 601 756.748C601 756.718 601 756.688 601 756.658C601 756.628 601 756.599 601 756.569C601 756.539 601 756.509 601 756.479C601 756.449 601 756.42 601 756.39C601 756.36 601 756.33 601 756.3C601 756.27 601 756.241 601 756.211C601 756.181 601 756.151 601 756.122C601 756.092 601 756.062 601 756.032C601 756.003 601 755.973 601 755.943C601 755.913 601 755.884 601 755.854C601 755.824 601 755.794 601 755.765C601 755.735 601 755.705 601 755.676C601 755.646 601 755.616 601 755.587C601 755.557 601 755.527 601 755.498C601 755.468 601 755.438 601 755.409C601 755.379 601 755.349 601 755.32C601 755.29 601 755.26 601 755.231C601 755.201 601 755.172 601 755.142C601 755.112 601 755.083 601 755.053C601 755.024 601 754.994 601 754.964C601 754.935 601 754.905 601 754.876C601 754.846 601 754.817 601 754.787C601 754.758 601 754.728 601 754.698C601 754.669 601 754.639 601 754.61C601 754.58 601 754.551 601 754.521C601 754.492 601 754.462 601 754.433C601 754.403 601 754.374 601 754.345C601 754.315 601 754.286 601 754.256C601 754.227 601 754.197 601 754.168C601 754.138 601 754.109 601 754.08C601 754.05 601 754.021 601 753.991C601 753.962 601 753.933 601 753.903C601 753.874 601 753.844 601 753.815C601 753.786 601 753.756 601 753.727C601 753.698 601 753.668 601 753.639C601 753.61 601 753.58 601 753.551C601 753.522 601 753.492 601 753.463C601 753.434 601 753.404 601 753.375C601 753.346 601 753.316 601 753.287C601 753.258 601 753.229 601 753.199C601 753.17 601 753.141 601 753.112C601 753.082 601 753.053 601 753.024C601 752.995 601 752.965 601 752.936C601 752.907 601 752.878 601 752.848C601 752.819 601 752.79 601 752.761C601 752.732 601 752.702 601 752.673C601 752.644 601 752.615 601 752.586C601 752.557 601 752.528 601 752.498C601 752.469 601 752.44 601 752.411C601 752.382 601 752.353 601 752.324C601 752.294 601 752.265 601 752.236C601 752.207 601 752.178 601 752.149C601 752.12 601 752.091 601 752.062C601 752.033 601 752.004 601 751.975C601 751.946 601 751.916 601 751.887C601 751.858 601 751.829 601 751.8C601 751.771 601 751.742 601 751.713C601 751.684 601 751.655 601 751.626C601 751.597 601 751.568 601 751.539C601 751.51 601 751.481 601 751.452C601 751.423 601 751.395 601 751.366C601 751.337 601 751.308 601 751.279C601 751.25 601 751.221 601 751.192C601 751.163 601 751.134 601 751.105C601 751.076 601 751.047 601 751.019C601 750.99 601 750.961 601 750.932C601 750.903 601 750.874 601 750.845C601 750.817 601 750.788 601 750.759C601 750.73 601 750.701 601 750.672C601 750.644 601 750.615 601 750.586C601 750.557 601 750.528 601 750.5C601 750.471 601 750.442 601 750.413C601 750.384 601 750.356 601 750.327C601 750.298 601 750.269 601 750.241C601 750.212 601 750.183 601 750.154C601 750.126 601 750.097 601 750.068C601 750.039 601 750.011 601 749.982C601 749.953 601 749.925 601 749.896C601 749.867 601 749.839 601 749.81C601 749.781 601 749.753 601 749.724C601 749.695 601 749.667 601 749.638C601 749.609 601 749.581 601 749.552C601 749.523 601 749.495 601 749.466C601 749.438 601 749.409 601 749.38C601 749.352 601 749.323 601 749.295C601 749.266 601 749.238 601 749.209C601 749.18 601 749.152 601 749.123C601 749.095 601 749.066 601 749.038C601 749.009 601 748.981 601 748.952C601 748.924 601 748.895 601 748.867C601 748.838 601 748.81 601 748.781C601 748.753 601 748.724 601 748.696C601 748.667 601 748.639 601 748.61C601 748.582 601 748.553 601 748.525C601 748.496 601 748.468 601 748.44C601 748.411 601 748.383 601 748.354C601 748.326 601 748.297 601 748.269C601 748.241 601 748.212 601 748.184C601 748.156 601 748.127 601 748.099C601 748.07 601 748.042 601 748.014C601 747.985 601 747.957 601 747.929C601 747.9 601 747.872 601 747.844C601 747.815 601 747.787 601 747.759C601 747.73 601 747.702 601 747.674C601 747.646 601 747.617 601 747.589C601 747.561 601 747.533 601 747.504C601 747.476 601 747.448 601 747.419C601 747.391 601 747.363 601 747.335C601 747.307 601 747.278 601 747.25C601 747.222 601 747.194 601 747.166C601 747.137 601 747.109 601 747.081C601 747.053 601 747.025 601 746.996C601 746.968 601 746.94 601 746.912C601 746.884 601 746.856 601 746.827C601 746.799 601 746.771 601 746.743C601 746.715 601 746.687 601 746.659C601 746.631 601 746.603 601 746.574C601 746.546 601 746.518 601 746.49C601 746.462 601 746.434 601 746.406C601 746.378 601 746.35 601 746.322C601 746.294 601 746.266 601 746.238C601 746.21 601 746.182 601 746.154C601 746.126 601 746.098 601 746.07C601 746.042 601 746.014 601 745.986C601 745.958 601 745.93 601 745.902C601 745.874 601 745.846 601 745.818C601 745.79 601 745.762 601 745.734C601 745.706 601 745.678 601 745.65C601 745.622 601 745.594 601 745.566C601 745.539 601 745.511 601 745.483C601 745.455 601 745.427 601 745.399C601 745.371 601 745.343 601 745.315C601 745.288 601 745.26 601 745.232C601 745.204 601 745.176 601 745.148C601 745.121 601 745.093 601 745.065C601 745.037 601 745.009 601 744.982C601 744.954 601 744.926 601 744.898C601 744.87 601 744.843 601 744.815C601 744.787 601 744.759 601 744.732C601 744.704 601 744.676 601 744.648C601 744.621 601 744.593 601 744.565C601 744.537 601 744.51 601 744.482C601 744.454 601 744.426 601 744.399C601 744.371 601 744.343 601 744.316C601 744.288 601 744.26 601 744.233C601 744.205 601 744.177 601 744.15C601 744.122 601 744.094 601 744.067C601 744.039 601 744.012 601 743.984C601 743.956 601 743.929 601 743.901C601 743.874 601 743.846 601 743.818C601 743.791 601 743.763 601 743.736C601 743.708 601 743.68 601 743.653C601 743.625 601 743.598 601 743.57C601 743.543 601 743.515 601 743.488C601 743.46 601 743.433 601 743.405C601 743.378 601 743.35 601 743.323C601 743.295 601 743.268 601 743.24C601 743.213 601 743.185 601 743.158C601 743.13 601 743.103 601 743.075C601 743.048 601 743.02 601 742.993C601 742.966 601 742.938 601 742.911C601 742.883 601 742.856 601 742.828C601 742.801 601 742.774 601 742.746C601 742.719 601 742.692 601 742.664C601 742.637 601 742.609 601 742.582C601 742.555 601 742.527 601 742.5C601 742.473 601 742.445 601 742.418C601 742.391 601 742.363 601 742.336C601 742.309 601 742.281 601 742.254C601 742.227 601 742.199 601 742.172C601 742.145 601 742.118 601 742.09C601 742.063 601 742.036 601 742.009C601 741.981 601 741.954 601 741.927C601 741.9 601 741.872 601 741.845C601 741.818 601 741.791 601 741.764C601 741.736 601 741.709 601 741.682C601 741.655 601 741.628 601 741.6C601 741.573 601 741.546 601 741.519C601 741.492 601 741.465 601 741.437C601 741.41 601 741.383 601 741.356C601 741.329 601 741.302 601 741.275C601 741.248 601 741.22 601 741.193C601 741.166 601 741.139 601 741.112C601 741.085 601 741.058 601 741.031C601 741.004 601 740.977 601 740.95C601 740.923 601 740.896 601 740.869C601 740.841 601 740.814 601 740.787C601 740.76 601 740.733 601 740.706C601 740.679 601 740.652 601 740.625C601 740.598 601 740.571 601 740.544C601 740.517 601 740.49 601 740.463C601 740.437 601 740.41 601 740.383C601 740.356 601 740.329 601 740.302C601 740.275 601 740.248 601 740.221C601 740.194 601 740.167 601 740.14C601 740.113 601 740.087 601 740.06C601 740.033 601 740.006 601 739.979C601 739.952 601 739.925 601 739.898C601 739.872 601 739.845 601 739.818C601 739.791 601 739.764 601 739.737C601 739.711 601 739.684 601 739.657C601 739.63 601 739.603 601 739.577C601 739.55 601 739.523 601 739.496C601 739.469 601 739.443 601 739.416C601 739.389 601 739.362 601 739.336C601 739.309 601 739.282 601 739.255C601 739.229 601 739.202 601 739.175C601 739.148 601 739.122 601 739.095C601 739.068 601 739.042 601 739.015C601 738.988 601 738.962 601 738.935C601 738.908 601 738.882 601 738.855C601 738.828 601 738.802 601 738.775C601 738.748 601 738.722 601 738.695C601 738.668 601 738.642 601 738.615C601 738.589 601 738.562 601 738.535C601 738.509 601 738.482 601 738.456C601 738.429 601 738.402 601 738.376C601 738.349 601 738.323 601 738.296C601 738.27 601 738.243 601 738.217C601 738.19 601 738.164 601 738.137C601 738.111 601 738.084 601 738.057C601 738.031 601 738.004 601 737.978C601 737.952 601 737.925 601 737.899C601 737.872 601 737.846 601 737.819C601 737.793 601 737.766 601 737.74C601 737.713 601 737.687 601 737.66C601 737.634 601 737.608 601 737.581C601 737.555 601 737.528 601 737.502C601 737.476 601 737.449 601 737.423C601 737.396 601 737.37 601 737.344C601 737.317 601 737.291 601 737.265C601 737.238 601 737.212 601 737.186C601 737.159 601 737.133 601 737.107C601 737.08 601 737.054 601 737.028C601 737.001 601 736.975 601 736.949C601 736.923 601 736.896 601 736.87C601 736.844 601 736.817 601 736.791C601 736.765 601 736.739 601 736.712C601 736.686 601 736.66 601 736.634C601 736.607 601 736.581 601 736.555C601 736.529 601 736.503 601 736.476C601 736.45 601 736.424 601 736.398C601 736.372 601 736.345 601 736.319C601 736.293 601 736.267 601 736.241C601 736.215 601 736.188 601 736.162C601 736.136 601 736.11 601 736.084C601 736.058 601 736.032 601 736.006C601 735.98 601 735.953 601 735.927C601 735.901 601 735.875 601 735.849C601 735.823 601 735.797 601 735.771C601 735.745 601 735.719 601 735.693C601 735.667 601 735.641 601 735.615C601 735.589 601 735.563 601 735.536C601 735.51 601 735.484 601 735.458C601 735.432 601 735.406 601 735.38C601 735.355 601 735.329 601 735.303C601 735.277 601 735.251 601 735.225C601 735.199 601 735.173 601 735.147C601 735.121 601 735.095 601 735.069C601 735.043 601 735.017 601 734.991C601 734.965 601 734.939 601 734.914C601 734.888 601 734.862 601 734.836C601 734.81 601 734.784 601 734.758C601 734.732 601 734.707 601 734.681C601 734.655 601 734.629 601 734.603C601 734.577 601 734.552 601 734.526C601 734.5 601 734.474 601 734.448C601 734.423 601 734.397 601 734.371C601 734.345 601 734.319 601 734.294C601 734.268 601 734.242 601 734.216C601 734.191 601 734.165 601 734.139C601 734.113 601 734.088 601 734.062C601 734.036 601 734.01 601 733.985C601 733.959 601 733.933 601 733.908C601 733.882 601 733.856 601 733.831C601 733.805 601 733.779 601 733.753C601 733.728 601 733.702 601 733.677C601 733.651 601 733.625 601 733.6C601 733.574 601 733.548 601 733.523C601 733.497 601 733.471 601 733.446C601 733.42 601 733.395 601 733.369C601 733.343 601 733.318 601 733.292C601 733.267 601 733.241 601 733.216C601 733.19 601 733.165 601 733.139C601 733.113 601 733.088 601 733.062C601 733.037 601 733.011 601 732.986C601 732.96 601 732.935 601 732.909C601 732.884 601 732.858 601 732.833C601 732.807 601 732.782 601 732.756C601 732.731 601 732.705 601 732.68C601 732.655 601 732.629 601 732.604C601 732.578 601 732.553 601 732.527C601 732.502 601 732.477 601 732.451C601 732.426 601 732.4 601 732.375C601 732.35 601 732.324 601 732.299C601 732.273 601 732.248 601 732.223C601 732.197 601 732.172 601 732.147C601 732.121 601 732.096 601 732.071C601 732.045 601 732.02 601 731.995C601 731.969 601 731.944 601 731.919C601 731.893 601 731.868 601 731.843C601 731.818 601 731.792 601 731.767C601 731.742 601 731.717 601 731.691C601 731.666 601 731.641 601 731.616C601 731.59 601 731.565 601 731.54C601 731.515 601 731.489 601 731.464C601 731.439 601 731.414 601 731.389C601 731.363 601 731.338 601 731.313C601 731.288 601 731.263 601 731.238C601 731.212 601 731.187 601 731.162C601 731.137 601 731.112 601 731.087C601 731.062 601 731.036 601 731.011C601 730.986 601 730.961 601 730.936C601 730.911 601 730.886 601 730.861C601 730.836 601 730.811 601 730.785C601 730.76 601 730.735 601 730.71C601 730.685 601 730.66 601 730.635C601 730.61 601 730.585 601 730.56C601 730.535 601 730.51 601 730.485C601 730.46 601 730.435 601 730.41C601 730.385 601 730.36 601 730.335C601 730.31 601 730.285 601 730.26C601 730.235 601 730.21 601 730.185C601 730.16 601 730.135 601 730.11C601 730.085 601 730.061 601 730.036C601 730.011 601 729.986 601 729.961C601 729.936 601 729.911 601 729.886C601 729.861 601 729.836 601 729.812C601 729.787 601 729.762 601 729.737C601 729.712 601 729.687 601 729.662C601 729.638 601 729.613 601 729.588C601 729.563 601 729.538 601 729.513C601 729.489 601 729.464 601 729.439C601 729.414 601 729.39 601 729.365C601 729.34 601 729.315 601 729.29C601 729.266 601 729.241 601 729.216C601 729.191 601 729.167 601 729.142C601 729.117 601 729.092 601 729.068C601 729.043 601 729.018 601 728.994C601 728.969 601 728.944 601 728.92C601 728.895 601 728.87 601 728.845C601 728.821 601 728.796 601 728.771C601 728.747 601 728.722 601 728.698C601 728.673 601 728.648 601 728.624C601 728.599 601 728.574 601 728.55C601 728.525 601 728.501 601 728.476C601 728.451 601 728.427 601 728.402C601 728.378 601 728.353 601 728.328C601 728.304 601 728.279 601 728.255C601 728.23 601 728.206 601 728.181C601 728.157 601 728.132 601 728.108C601 728.083 601 728.059 601 728.034C601 728.01 601 727.985 601 727.961C601 727.936 601 727.912 601 727.887C601 727.863 601 727.838 601 727.814C601 727.789 601 727.765 601 727.74C601 727.716 601 727.691 601 727.667C601 727.643 601 727.618 601 727.594C601 727.569 601 727.545 601 727.521C601 727.496 601 727.472 601 727.447C601 727.423 601 727.399 601 727.374C601 727.35 601 727.325 601 727.301C601 727.277 601 727.252 601 727.228C601 727.204 601 727.179 601 727.155C601 727.131 601 727.106 601 727.082C601 727.058 601 727.034 601 727.009C601 726.985 601 726.961 601 726.936C601 726.912 601 726.888 601 726.864C601 726.839 601 726.815 601 726.791C601 726.767 601 726.742 601 726.718C601 726.694 601 726.67 601 726.645C601 726.621 601 726.597 601 726.573C601 726.549 601 726.524 601 726.5C601 726.476 601 726.452 601 726.428C601 726.404 601 726.379 601 726.355C601 726.331 601 726.307 601 726.283C601 726.259 601 726.235 601 726.21C601 726.186 601 726.162 601 726.138C601 726.114 601 726.09 601 726.066C601 726.042 601 726.018 601 725.993C601 725.969 601 725.945 601 725.921C601 725.897 601 725.873 601 725.849C601 725.825 601 725.801 601 725.777C601 725.753 601 725.729 601 725.705C601 725.681 601 725.657 601 725.633C601 725.609 601 725.585 601 725.561C601 725.537 601 725.513 601 725.489C601 725.465 601 725.441 601 725.417C601 725.393 601 725.369 601 725.345C601 725.321 601 725.297 601 725.273C601 725.249 601 725.226 601 725.202C601 725.178 601 725.154 601 725.13C601 725.106 601 725.082 601 725.058C601 725.034 601 725.011 601 724.987C601 724.963 601 724.939 601 724.915C601 724.891 601 724.867 601 724.844C601 724.82 601 724.796 601 724.772C601 724.748 601 724.724 601 724.701C601 724.677 601 724.653 601 724.629C601 724.605 601 724.582 601 724.558C601 724.534 601 724.51 601 724.487C601 724.463 601 724.439 601 724.415C601 724.392 601 724.368 601 724.344C601 724.32 601 724.297 601 724.273C601 724.249 601 724.226 601 724.202C601 724.178 601 724.155 601 724.131C601 724.107 601 724.083 601 724.06C601 724.036 601 724.012 601 723.989C601 723.965 601 723.942 601 723.918C601 723.894 601 723.871 601 723.847C601 723.823 601 723.8 601 723.776C601 723.753 601 723.729 601 723.705C601 723.682 601 723.658 601 723.635C601 723.611 601 723.588 601 723.564C601 723.54 601 723.517 601 723.493C601 723.47 601 723.446 601 723.423C601 723.399 601 723.376 601 723.352C601 723.329 601 723.305 601 723.282C601 723.258 601 723.235 601 723.211C601 723.188 601 723.164 601 723.141C601 723.117 601 723.094 601 723.07C601 723.047 601 723.023 601 723H561ZM561 765V793.5H601V765H561ZM564.5 1165C565.254 1165 566.435 1165.13 567.803 1165.68C569.194 1166.24 570.325 1167.04 571.142 1167.86C572.62 1169.34 572.402 1170.14 571.903 1168.15L533.097 1177.85C534.598 1183.86 537.38 1190.66 542.858 1196.14C548.854 1202.14 556.553 1205 564.5 1205V1165ZM572.346 1170.52C571.522 1163.93 571 1150.12 571 1128H531C531 1149.88 531.478 1166.07 532.654 1175.48L572.346 1170.52ZM571 1128V1042.5H531V1128H571ZM536.134 1055.88C543.168 1063.69 548.23 1072.63 551.384 1082.88L589.616 1071.12C584.77 1055.37 576.832 1041.31 565.866 1029.12L536.134 1055.88ZM551.833 1084.18C555.623 1094.03 558 1108.33 558 1128H598C598 1105.67 595.377 1085.97 589.167 1069.82L551.833 1084.18ZM558 1128C558 1151.29 556.912 1164.39 555.597 1169.65L594.403 1179.35C597.088 1168.61 598 1150.71 598 1128H558ZM555.77 1169.01C555.295 1170.67 555.21 1169.76 556.733 1168.23C557.58 1167.39 558.792 1166.49 560.354 1165.85C561.912 1165.21 563.369 1165 564.5 1165V1205C572.244 1205 579.474 1202.06 585.017 1196.52C590.04 1191.49 592.706 1185.33 594.23 1179.99L555.77 1169.01Z" fill="#000176" mask="url(#path-2-outside-1_404_47)"/>
</svg>
